<svg id="Layer_1" data-name="Layer 1" xmlns="http://www.w3.org/2000/svg" viewBox="0 0 55 70"><defs><style>.cls-1,.cls-2,.cls-5{fill:none;stroke:#2a1713;stroke-linecap:round;}.cls-1,.cls-2{stroke-linejoin:round;}.cls-1,.cls-5{stroke-width:1.15px;}.cls-2{stroke-width:0.74px;}.cls-3{font-size:5.78px;font-family:NotoSans-Bold, Noto Sans;font-weight:700;}.cls-3,.cls-4{fill:#2a1713;}.cls-5{stroke-miterlimit:10;}</style></defs><title>icons-1</title><rect class="cls-1" x="9.86" y="11.52" width="21.16" height="5.01"/><polygon class="cls-1" points="33.12 21.85 7.76 21.85 9.86 16.84 31.02 16.84 33.12 21.85"/><polygon class="cls-1" points="33.12 21.85 7.76 21.85 7.76 61.98 32.04 61.98 33.12 21.85"/><path class="cls-2" d="M11.43,28.29s5.27.23,7.25,20.73a.51.51,0,0,0,.59.49l1.63-.25a.61.61,0,0,0,.5-.65c-.11-1.54,0-6.12,3.58-12.77a4.1,4.1,0,0,0,4.14-1.76c1.61-2.34.82-2.62,1.59-5.47,0,0-3.84.43-5.1,1.19A6.51,6.51,0,0,0,23,33.59a4,4,0,0,0-.11,1.51,7.57,7.57,0,0,1,3.9-3.76,42.07,42.07,0,0,0-7,15.53S18.63,29.66,11.43,28.29Z"/><text class="cls-3" transform="translate(9.74 58.24)">VEGAN</text><path class="cls-4" d="M35.79,46.48a5,5,0,0,1-1.5-3.43c.09-2.91,2.84-5.85,4.91-7.8a.52.52,0,0,1,.75,0c1.95,2.07,4.53,5.17,4.45,8.08-.07,2.56-3,5-5.2,4.92A5.31,5.31,0,0,1,35.79,46.48ZM39.54,36.4c-1.87,1.81-4.11,4.34-4.18,6.68-.06,1.9,2.26,4.08,3.87,4.12s4.05-2,4.11-3.88C43.4,41,41.3,38.31,39.54,36.4Z"/><path class="cls-4" d="M46.66,56.71A5.1,5.1,0,0,1,43,56.14h0c-1.71-1.19-2.64-4.79-1.23-6.83,1.6-2.32,5.38-3.24,8.09-3.73a.51.51,0,0,1,.6.42c.49,2.71,1,6.59-.65,8.9A4.79,4.79,0,0,1,46.66,56.71Zm-3.1-1.42c1.28.89,4.33.53,5.38-1,1.29-1.86,1-5.13.56-7.62C47,47.17,43.88,48,42.59,49.9c-1,1.5-.31,4.5,1,5.39Z"/><path class="cls-5" d="M39.35,41.64c0,11.25-2.41,14.19-6.75,17.19"/><path class="cls-5" d="M46.06,51.63c-2.72,3.1-5,4.7-10,4.14"/></svg>