<svg id="Layer_1" data-name="Layer 1" xmlns="http://www.w3.org/2000/svg" viewBox="0 0 55 70"><defs><style>.cls-1,.cls-2{fill:none;stroke:#000;stroke-linecap:round;stroke-linejoin:round;}.cls-1{stroke-width:1.81px;}.cls-2{stroke-width:1.45px;}</style></defs><title>icons-1</title><path class="cls-1" d="M37.64,21l.55-2"/><path class="cls-1" d="M46.09,25.85l1.51-1.4"/><path class="cls-1" d="M48.68,29.85l1.69-1.17"/><path class="cls-1" d="M42.13,22.75,43.26,21"/><path class="cls-1" d="M50.4,33.89l2-.42"/><path class="cls-1" d="M51,38.65l2.05-.16"/><path class="cls-2" d="M43.51,43a3.83,3.83,0,0,0,1.82-3.63,4,4,0,0,0-4.06-3.49H28s1.92-5.05,1.92-8.66-3.13-6.74-4.81-6.74a5.07,5.07,0,0,0-2.89,1v6.74L16.46,40.67l-1.92,1V39.7H4.91a3.85,3.85,0,0,0-3.85,3.85V59a3.85,3.85,0,0,0,3.85,3.85h5.78A3.85,3.85,0,0,0,14.54,59h0c1.16,1.16,4.09,1.92,5.78,1.92H38a3.44,3.44,0,0,0,3.42-2.6,3.36,3.36,0,0,0-1-3.21,3.35,3.35,0,0,0,1.93-5.78A3.35,3.35,0,0,0,43.51,43Z"/><line class="cls-2" x1="14.22" y1="41.63" x2="14.22" y2="58.96"/></svg>