<svg id="Layer_1" data-name="Layer 1" xmlns="http://www.w3.org/2000/svg" viewBox="0 0 55 70"><defs><style>.cls-1,.cls-2,.cls-3{fill:none;stroke:#2a1713;}.cls-1{stroke-miterlimit:10;}.cls-1,.cls-2{stroke-width:1.52px;}.cls-2,.cls-3{stroke-linecap:round;stroke-linejoin:round;}.cls-3{stroke-width:0.69px;}</style></defs><title>icons-1</title><path class="cls-1" d="M27.69,67.47c-4.88.55-11.61-3.72-16.46-10.9C5.35,47.88,4.45,38.23,9.21,35c4.5-3,12.44.73,18.25,8.47"/><path class="cls-2" d="M9.31,34.94a23.75,23.75,0,0,0,11,17.12c.64.4,1.31.94,1.87,1.35"/><path class="cls-1" d="M26.91,44.9c-5.88,8.69-6.78,18.34-2,21.56s13.39-1.2,19.27-9.89,6.77-18.34,2-21.56S32.78,36.21,26.91,44.9Z"/><path class="cls-2" d="M46.07,34.94a23.71,23.71,0,0,1-11,17.12C24.85,58.44,24.79,66.4,24.79,66.4"/><path class="cls-3" d="M32.59,17.49c0,.32,0,.64-.05,1a5.35,5.35,0,0,1-.23,1.18,6.84,6.84,0,0,1-.79,1.66,8,8,0,0,1-1.27,1.5,9.55,9.55,0,0,1-1.9,1.39,22.28,22.28,0,0,0-2.18,1.45,13.08,13.08,0,0,0-1.48,1.31,6.44,6.44,0,0,0-1.28,1.82c-.09.2-.15.42-.23.64,0-.1,0-.18-.05-.27a5.83,5.83,0,0,1,.21-2.08,7.3,7.3,0,0,1,1-2.18,9,9,0,0,1,1.5-1.65A14.56,14.56,0,0,1,28,21.7c.5-.3,1-.62,1.47-.95a13.18,13.18,0,0,0,1.56-1.23,6.36,6.36,0,0,0,1.23-1.46,5.22,5.22,0,0,0,.24-.54l0,0h.05"/><path class="cls-3" d="M23.16,24.4c0-.22-.05-.45-.05-.67a6.43,6.43,0,0,1,.68-2.85,8.21,8.21,0,0,1,1.9-2.48c.43-.38.89-.73,1.35-1.07s.78-.47,1.17-.71a19.76,19.76,0,0,0,2.6-1.85,7.79,7.79,0,0,0,1.27-1.36,2.46,2.46,0,0,0,.44-.85s0,0,0,0h0c0,.17,0,.35,0,.52a6.47,6.47,0,0,1-1.31,3.66,8.44,8.44,0,0,1-1.82,1.76c-.47.34-1,.63-1.46.94a20,20,0,0,0-2.09,1.45,11.89,11.89,0,0,0-1.38,1.28A6.09,6.09,0,0,0,23.32,24c-.05.14-.08.29-.13.43Z"/><path class="cls-3" d="M25.48,31.34v-.25a5.77,5.77,0,0,1,1-3.17,6.09,6.09,0,0,1,.76-.92A6.79,6.79,0,0,1,28.72,26a17,17,0,0,0,2.43-1.6,5.6,5.6,0,0,0,1.05-1.07l.06-.1.06-.09h0a4.5,4.5,0,0,1,.08.51,3.68,3.68,0,0,1-.91,2.64,6.81,6.81,0,0,1-2.05,1.65A15.39,15.39,0,0,0,27,29.52,6.16,6.16,0,0,0,25.71,31a2.69,2.69,0,0,0-.16.29.43.43,0,0,1,0,.07h0"/></svg>