<svg id="Layer_1" data-name="Layer 1" xmlns="http://www.w3.org/2000/svg" viewBox="0 0 55 70"><defs><style>.cls-1,.cls-2,.cls-3,.cls-4{fill:none;stroke:#2a1713;stroke-linecap:round;stroke-linejoin:round;}.cls-1{stroke-width:0.94px;}.cls-2{stroke-width:0.71px;}.cls-3{stroke-width:0.81px;}.cls-4{stroke-width:1.53px;}</style></defs><title>icons-1</title><path class="cls-1" d="M29.85,18.44l-1,.47a9.76,9.76,0,0,1-8.14-.05l-.86-.42V15.15l3.67.59a8.48,8.48,0,0,0,2.66,0l3.67-.59Z"/><ellipse class="cls-1" cx="24.85" cy="13.81" rx="5" ry="1.34"/><rect class="cls-1" x="23.55" y="3.38" width="2.78" height="9.76"/><path class="cls-2" d="M5.78,4.45,8.37,2.71,21.15,1.37s4-1.93,7.59,0c2,1.1-3.52,2-3.52,2h0A24.21,24.21,0,0,0,16.94,3l-7.46.92Z"/><path class="cls-3" d="M20,27.3s6.42,1.22,10.26,0l1.63,4.19a29.8,29.8,0,0,1-12.91,0Z"/><path class="cls-3" d="M21.15,45.84c5.18,1.13,8,0,8,0"/><path class="cls-4" d="M37.06,53c1.29,0,2.54-1,4.41-1,3.33,0,5.59,2.74,5.59,6.81s-3.44,9.73-7.81,9.73C37.9,68.52,38,68.06,37,68h0c-.93,0-.86.49-2.22.49-4.37,0-7.81-5.66-7.81-9.73S29.29,52,32.62,52c1.87,0,3.12,1,4.41,1Z"/><path class="cls-4" d="M34.84,47.12A9,9,0,0,1,37.06,53"/><path class="cls-4" d="M37.06,52.47a5.25,5.25,0,0,0,5.56-5.35A5.25,5.25,0,0,0,37.06,52.47Z"/><path class="cls-1" d="M27,58.5c0-3.77,1.93-6.39,4.85-6.76v-9c-6.1,1.67-14.06,0-14.06,0L17.63,63c3.34,1.21,7.82,1,10.86.57A10.92,10.92,0,0,1,27,58.5Z"/><path class="cls-4" d="M27,58.76C27,54.69,29.29,52,32.62,52c1.8,0,3,.92,4.26,1v-.46l-2-5.39a10,10,0,0,1,2,4.08V37.92c.74-.78-1.09-3.7-3.72-4.24-1-.2-1.32-1.22-1.47-2l-2.4-12.26L26.35,20a8.72,8.72,0,0,1-3.18,0l-2.39-.48-2,11.91a3.3,3.3,0,0,1-2.16,2.8A4.86,4.86,0,0,0,13.19,39V64.64a2,2,0,0,0,1.46,1.76l.55.22a28.1,28.1,0,0,0,16.64.95A11.3,11.3,0,0,1,27,58.76Z"/></svg>