<svg id="Layer_1" data-name="Layer 1" xmlns="http://www.w3.org/2000/svg" viewBox="0 0 49 57"><defs><style>.cls-1{fill:#48c04b;}</style></defs><title>icons</title><path class="cls-1" d="M44.67,54.77a.85.85,0,0,1-.85-.85h0a.86.86,0,1,1,.85.86Z"/><path class="cls-1" d="M7.9,57.35a3.46,3.46,0,0,1-3.47-3.43,3.41,3.41,0,0,1,2.19-3.19l6.78-2.28a.85.85,0,1,1,.54,1.62L7.2,52.34a1.68,1.68,0,0,0-1.06,1.57A1.74,1.74,0,0,0,7.9,55.63H42.05a1.74,1.74,0,0,0,1.77-1.71,1.72,1.72,0,0,0-1.11-1.6L36,50.07A.85.85,0,0,1,35.47,49a.86.86,0,0,1,1.09-.54l6.74,2.26a3.42,3.42,0,0,1-1.25,6.63Z"/><path class="cls-1" d="M32.68,51.71a.84.84,0,0,1-.8-.58A.86.86,0,0,1,32.4,50,21.88,21.88,0,0,0,47.24,29.49,22.06,22.06,0,0,0,25,7.68,22.07,22.07,0,0,0,2.71,29.49,21.89,21.89,0,0,0,17.55,50a.86.86,0,0,1,.53,1.09.85.85,0,0,1-1.09.53A23.6,23.6,0,0,1,1,29.49,23.79,23.79,0,0,1,25,6,23.79,23.79,0,0,1,49,29.49,23.6,23.6,0,0,1,33,51.66,1,1,0,0,1,32.68,51.71Z"/><path class="cls-1" d="M25,45.36a13.71,13.71,0,1,1,13.7-13.71A13.72,13.72,0,0,1,25,45.36Zm0-25.7a12,12,0,1,0,12,12A12,12,0,0,0,25,19.66Z"/><path class="cls-1" d="M25,41.93A10.28,10.28,0,1,1,35.25,31.65,10.29,10.29,0,0,1,25,41.93Zm0-18.84a8.57,8.57,0,1,0,8.56,8.56A8.58,8.58,0,0,0,25,23.09Z"/><circle class="cls-1" cx="34.4" cy="15.38" r="1.71"/><path class="cls-1" d="M34.4,18A2.57,2.57,0,1,1,37,15.38,2.57,2.57,0,0,1,34.4,18Zm0-3.42a.86.86,0,1,0,.85.85A.85.85,0,0,0,34.4,14.53Z"/></svg>