<svg id="Layer_1" data-name="Layer 1" xmlns="http://www.w3.org/2000/svg" viewBox="0 0 49 57"><defs><style>.cls-1{fill:#48c04b;}</style></defs><title>icons</title><path class="cls-1" d="M37.55,53.94A11.42,11.42,0,1,1,49,42.52,11.43,11.43,0,0,1,37.55,53.94Zm0-21.21a9.79,9.79,0,1,0,9.79,9.79A9.81,9.81,0,0,0,37.55,32.73Z"/><path class="cls-1" d="M36.73,47.42a.78.78,0,0,1-.57-.24l-3.27-3.26a.82.82,0,0,1,1.16-1.16l2.68,2.69,6-6a.81.81,0,0,1,1.15,1.15l-6.52,6.53A.82.82,0,0,1,36.73,47.42Z"/><path class="cls-1" d="M27,52.31H19a2,2,0,0,1-2-1.67l-.82-5.58a18.53,18.53,0,0,1-3.35-1.89L7.43,45.29A2,2,0,0,1,5,44.43L.3,36.54A1.94,1.94,0,0,1,.79,34l4.58-3.49c-.07-.7-.11-1.31-.11-1.87s0-1.18.11-1.88L.79,23.3a1.93,1.93,0,0,1-.48-2.54L5,12.87A2,2,0,0,1,7.42,12l5.44,2.12a19.19,19.19,0,0,1,3.35-1.89L17,6.66A2,2,0,0,1,19,5h9.39a2,2,0,0,1,2,1.67l.82,5.58a18.2,18.2,0,0,1,3.35,1.89L39.94,12a2,2,0,0,1,2.44.87l4.69,7.88s0,0,0,0a2,2,0,0,1-.5,2.51L42,26.78a17.33,17.33,0,0,1,.11,1.88c0,.14,0,.27,0,.41a1,1,0,0,1-.35.69.84.84,0,0,1-.7.2,12.85,12.85,0,0,0-9.14.81.81.81,0,0,1-.87-.1.85.85,0,0,1-.28-.83,7.79,7.79,0,0,0,.26-2,8.16,8.16,0,1,0-6.16,7.9.81.81,0,0,1,.83.28.83.83,0,0,1,.11.87,12.73,12.73,0,0,0-1.3,5.63A13,13,0,0,0,27.62,51,.81.81,0,0,1,27,52.31ZM13,41.43a.89.89,0,0,1,.49.16,16.74,16.74,0,0,0,3.78,2.14.79.79,0,0,1,.5.64l.9,6.05a.33.33,0,0,0,.34.26h6.36a14.71,14.71,0,0,1-2.49-8.16,14.54,14.54,0,0,1,.87-4.93,9.79,9.79,0,1,1,8.92-9.75,8.44,8.44,0,0,1,0,.87,14.4,14.4,0,0,1,7.86-.57,16.09,16.09,0,0,0-.15-1.62.83.83,0,0,1,.32-.75l5-3.77a.32.32,0,0,0,.07-.41L41,13.7a.4.4,0,0,0-.46-.15l-5.82,2.28a.83.83,0,0,1-.79-.11,16.32,16.32,0,0,0-3.78-2.14.79.79,0,0,1-.5-.63l-.9-6.06a.32.32,0,0,0-.34-.26H19a.33.33,0,0,0-.34.25L17.75,13a.79.79,0,0,1-.5.63,17.54,17.54,0,0,0-3.79,2.14.81.81,0,0,1-.78.11L6.84,13.54a.35.35,0,0,0-.43.14L1.7,21.6a.31.31,0,0,0,.08.4l5,3.77a.78.78,0,0,1,.32.75,16.37,16.37,0,0,0-.16,2.14,16.23,16.23,0,0,0,.16,2.13.78.78,0,0,1-.32.75L1.78,35.31a.32.32,0,0,0-.06.42L6.4,43.61a.39.39,0,0,0,.46.15l5.82-2.27A.8.8,0,0,1,13,41.43Z"/></svg>