<svg id="Layer_1" data-name="Layer 1" xmlns="http://www.w3.org/2000/svg" viewBox="0 0 49 57"><defs><style>.cls-1{fill:#48c04b;}</style></defs><title>icons</title><path class="cls-1" d="M44.12,47.34H5.32A4.85,4.85,0,0,1,.47,42.49V19.86A4.85,4.85,0,0,1,5.32,15h38.8A4.86,4.86,0,0,1,49,19.86V42.49A4.85,4.85,0,0,1,44.12,47.34ZM5.32,16.63a3.24,3.24,0,0,0-3.24,3.23V42.49a3.25,3.25,0,0,0,3.24,3.24h38.8a3.24,3.24,0,0,0,3.23-3.24V19.86a3.23,3.23,0,0,0-3.23-3.23Z"/><path class="cls-1" d="M15.83,36H7.74a.81.81,0,1,1,0-1.62h8.09a.81.81,0,0,1,0,1.62Z"/><path class="cls-1" d="M25.53,40.88H7.74a.81.81,0,1,1,0-1.62H25.53a.81.81,0,0,1,0,1.62Z"/><path class="cls-1" d="M11,31.18H7.74a.81.81,0,0,1,0-1.62H11a.81.81,0,0,1,0,1.62Z"/><path class="cls-1" d="M19.06,31.18H15.83a.81.81,0,0,1,0-1.62h3.23a.81.81,0,1,1,0,1.62Z"/><path class="cls-1" d="M27.14,31.18H23.91a.81.81,0,0,1,0-1.62h3.23a.81.81,0,1,1,0,1.62Z"/><path class="cls-1" d="M38.46,40.88a4,4,0,1,1,4-4A4,4,0,0,1,38.46,40.88Zm0-6.47a2.43,2.43,0,1,0,2.42,2.43A2.43,2.43,0,0,0,38.46,34.41Z"/><path class="cls-1" d="M35.23,40.88a4,4,0,1,1,0-8.09,4.12,4.12,0,0,1,1.94.5.81.81,0,1,1-.78,1.42,2.36,2.36,0,0,0-1.16-.3,2.43,2.43,0,1,0,0,4.85A2.34,2.34,0,0,0,36.36,39a.81.81,0,1,1,.76,1.43A4.13,4.13,0,0,1,35.23,40.88Z"/></svg>