<svg id="Layer_1" data-name="Layer 1" xmlns="http://www.w3.org/2000/svg" viewBox="0 0 49 57"><defs><style>.cls-1{fill:#48c04b;}</style></defs><title>icons</title><path class="cls-1" d="M42,51.67H7a7,7,0,0,1-7-7V24.1c0-3.7,3.29-6.71,7.35-6.71H41.62c4.12,0,7.35,2.87,7.35,6.53v20.4A7.27,7.27,0,0,1,42,51.67ZM7.35,19C4.2,19,1.63,21.3,1.63,24.1V44.68A5.37,5.37,0,0,0,7,50H42a5.7,5.7,0,0,0,5.36-5.72V23.92c0-3.07-2.91-4.9-5.72-4.9Z"/><path class="cls-1" d="M48.15,41.87H40a7.63,7.63,0,0,1-7.34-7.34A7.64,7.64,0,0,1,40,27.18h8.16A.82.82,0,0,1,49,28V41.06A.82.82,0,0,1,48.15,41.87ZM40,28.82a6,6,0,0,0-5.71,5.71A6,6,0,0,0,40,40.24h7.35V28.82Z"/><path class="cls-1" d="M40.81,19a.82.82,0,0,1-.75-.48L36,9.57a5,5,0,0,0-3-2.47,6.34,6.34,0,0,0-4.79.4L6.92,18.93a.83.83,0,0,1-1.11-.34.81.81,0,0,1,.33-1.1L27.36,6.06a7.94,7.94,0,0,1,6.06-.51,6.67,6.67,0,0,1,4,3.31l4.09,9A.82.82,0,0,1,41.14,19,.78.78,0,0,1,40.81,19Z"/><path class="cls-1" d="M22,19a.82.82,0,0,1-.4-1.53L36.33,9.33a.82.82,0,0,1,.79,1.43L22.43,18.92A.78.78,0,0,1,22,19Z"/><path class="cls-1" d="M.82,24.91A.81.81,0,0,1,0,24.1V22.29c0-6.41,4.66-11.43,10.61-11.43H18a.82.82,0,0,1,.82.82.81.81,0,0,1-.82.81H10.61c-5,0-9,4.31-9,9.8V24.1A.81.81,0,0,1,.82,24.91Z"/><path class="cls-1" d="M48.15,24.74a.82.82,0,0,1-.81-.82V21.86c0-5.34-3.86-9.37-9-9.37a.82.82,0,0,1-.82-.81.82.82,0,0,1,.82-.82c6,0,10.61,4.73,10.61,11v2.06A.82.82,0,0,1,48.15,24.74Z"/><path class="cls-1" d="M40,37a2.45,2.45,0,1,1,2.45-2.45A2.45,2.45,0,0,1,40,37Zm0-3.27a.82.82,0,1,0,.82.82A.82.82,0,0,0,40,33.71Z"/></svg>