<svg id="Layer_1" data-name="Layer 1" xmlns="http://www.w3.org/2000/svg" viewBox="0 0 49 57"><defs><style>.cls-1,.cls-2,.cls-3,.cls-4,.cls-5,.cls-6,.cls-7,.cls-8,.cls-9{fill:none;stroke:#48c04b;stroke-linecap:round;stroke-linejoin:round;}.cls-1{stroke-width:1.67px;}.cls-2{stroke-width:1.34px;}.cls-3{stroke-width:1px;}.cls-4{stroke-width:0.5px;}.cls-5{stroke-width:1.67px;}.cls-6{stroke-width:1.34px;}.cls-7{stroke-width:1px;}.cls-8{stroke-width:0.5px;}.cls-9{stroke-width:1.08px;}</style></defs><title>icons</title><rect class="cls-1" x="6.15" y="1.51" width="27.5" height="3.66"/><polygon class="cls-1" points="33.65 29.58 6 29.58 7.7 26.4 7.7 5.34 32.56 5.34 32.8 26.43 33.65 29.58"/><rect class="cls-2" x="19.56" y="8.92" width="10.1" height="6.6"/><polygon class="cls-3" points="26.08 26.99 23.16 26.99 22.6 20.98 26.64 20.98 26.08 26.99"/><circle class="cls-1" cx="35.95" cy="44.66" r="10.85"/><polyline class="cls-1" points="29.45 44.66 33.78 49 42.46 40.33"/><path class="cls-1" d="M21.63,41.35c1.93-9.28,9.56-10.33,12-10.85v-.92H6.15V50.67H22.89C21,45.67,21.23,43.31,21.63,41.35Z"/><line class="cls-2" x1="21.33" y1="30.77" x2="21.3" y2="34.49"/><path class="cls-4" d="M25.31,18.52c0,.79-.39,1.44-.87,1.44s-.88-.65-.88-1.44a7.33,7.33,0,0,1,.88-2.37A5.7,5.7,0,0,1,25.31,18.52Z"/><rect class="cls-5" x="6.11" y="1.51" width="27.43" height="3.65"/><polygon class="cls-5" points="33.55 29.52 5.97 29.52 7.67 26.34 7.67 5.33 32.47 5.33 32.71 26.37 33.55 29.52"/><rect class="cls-6" x="19.49" y="8.9" width="10.07" height="6.59"/><polygon class="cls-7" points="26 26.93 23.09 26.93 22.53 20.94 26.56 20.94 26 26.93"/><circle class="cls-5" cx="35.85" cy="44.57" r="10.82"/><polyline class="cls-5" points="29.36 44.57 33.69 48.9 42.35 40.24"/><path class="cls-5" d="M21.57,41.26C23.49,32,31.1,31,33.55,30.44v-.92H6.11v21l16.71,0C21,45.57,21.16,43.22,21.57,41.26Z"/><line class="cls-6" x1="13.46" y1="29.63" x2="13.46" y2="49.93"/><line class="cls-6" x1="21.26" y1="30.71" x2="21.23" y2="34.41"/><path class="cls-8" d="M25.24,18.48c0,.79-.39,1.44-.88,1.44s-.87-.65-.87-1.44a7.3,7.3,0,0,1,.87-2.36A5.49,5.49,0,0,1,25.24,18.48Z"/><line class="cls-9" x1="10.45" y1="15.49" x2="15.13" y2="15.49"/><line class="cls-9" x1="10.37" y1="20.42" x2="15.05" y2="20.42"/></svg>