<svg id="Layer_1" data-name="Layer 1" xmlns="http://www.w3.org/2000/svg" viewBox="0 0 60 60"><defs><style>.cls-1{fill:none;stroke:#2a1713;stroke-miterlimit:10;stroke-width:1.22px;}.cls-2{fill:#2a1713;}</style></defs><title>icons-2</title><circle class="cls-1" cx="30.34" cy="30.32" r="15.28"/><rect class="cls-1" x="4.64" y="4.99" width="51.04" height="51.04" rx="6.88"/><circle class="cls-2" cx="23.33" cy="30.08" r="2.19"/><circle class="cls-2" cx="37.1" cy="30.08" r="2.19"/><path class="cls-2" d="M28.55,14.73h3.28a0,0,0,0,1,0,0V17a1,1,0,0,1-1,1H29.58a1,1,0,0,1-1-1V14.73a0,0,0,0,1,0,0Z"/><path class="cls-2" d="M28.55,42.33h3.28a0,0,0,0,1,0,0v2.25a1,1,0,0,1-1,1H29.58a1,1,0,0,1-1-1V42.33A0,0,0,0,1,28.55,42.33Z" transform="translate(60.37 87.93) rotate(180)"/></svg>