<svg id="Layer_1" data-name="Layer 1" xmlns="http://www.w3.org/2000/svg" viewBox="0 0 60 60"><defs><style>.cls-1{font-size:15px;font-family:Roboto-Medium, Roboto;font-weight:500;}.cls-1,.cls-2{fill:#2a1713;}.cls-2{font-size:33px;font-family:Roboto-Light, Roboto;font-weight:300;}.cls-3,.cls-4,.cls-5{fill:none;stroke:#2a1713;}.cls-3,.cls-4{stroke-miterlimit:10;}.cls-3{stroke-width:1.05px;}.cls-4,.cls-5{stroke-width:1.03px;}.cls-5{stroke-linejoin:round;}</style></defs><title>icons-2</title><text class="cls-1" transform="translate(31.52 38.48)">2</text><text class="cls-2" transform="translate(7.86 45.74)">м</text><rect class="cls-3" x="0.44" y="15.54" width="44.18" height="44.18"/><line class="cls-4" x1="6.16" y1="6.94" x2="37.8" y2="6.94"/><path class="cls-5" d="M1.44,7.46,8.49,4.31c.86-.7-4.7,2.46,0,6.32Z"/><path class="cls-5" d="M43.12,6.35,36.34,10.1s3.59-3.49-.49-6.31Z"/><line class="cls-3" x1="0.44" y1="13.44" x2="0.44" y2="1.32"/><line class="cls-3" x1="44.44" y1="13.44" x2="44.44" y2="1.32"/><line class="cls-4" x1="53.63" y1="21.53" x2="53.25" y2="53.16"/><path class="cls-5" d="M53.71,16.8l3.07,7.09c.69.86-2.41-4.73-6.33-.08Z"/><path class="cls-5" d="M53,58.5l-3.15-7.08s3.16,3.88,6.32,0Z"/><line class="cls-3" x1="46.81" y1="59.4" x2="58.93" y2="59.54"/><line class="cls-3" x1="46.81" y1="15.4" x2="58.93" y2="15.54"/></svg>