<svg id="Layer_1" data-name="Layer 1" xmlns="http://www.w3.org/2000/svg" xmlns:xlink="http://www.w3.org/1999/xlink" viewBox="0 0 129.8 63"><defs><style>.cls-1{fill:#2d2a29;}.cls-2,.cls-3,.cls-4,.cls-7,.cls-9{fill:none;}.cls-2,.cls-3,.cls-4{stroke:#fff;stroke-linecap:round;stroke-linejoin:round;}.cls-2{stroke-width:1.86px;}.cls-3{stroke-width:1.74px;}.cls-4{stroke-width:1.11px;}.cls-5{fill:url(#linear-gradient);}.cls-6{fill:#47b549;}.cls-7{stroke:#2d2a29;stroke-width:0.16px;}.cls-7,.cls-9{stroke-miterlimit:10;}.cls-8{fill:#2b1813;}.cls-9{stroke:#47b549;stroke-width:2.23px;}.cls-10{fill:#fff;}</style><linearGradient id="linear-gradient" x1="57.6" y1="715.52" x2="58.15" y2="715.52" gradientTransform="matrix(126.11, 0, 0, -126.11, -7205.74, 90279.38)" gradientUnits="userSpaceOnUse"><stop offset="0" stop-color="#8ec540"/><stop offset="0.92" stop-color="#3fb44a"/><stop offset="1" stop-color="#3fb44a"/></linearGradient></defs><title>logo</title><rect class="cls-1" width="129.8" height="63"/><line class="cls-2" x1="99.54" y1="27.28" x2="84.81" y2="27.28"/><path class="cls-2" d="M69.6,34.63a5.48,5.48,0,1,1-.33-6"/><path class="cls-2" d="M88.08,38.62V24.56a2.58,2.58,0,0,1,2.67-2.67,12.43,12.43,0,0,1,1.73.55"/><path class="cls-2" d="M95.68,38.62V24.56a2.59,2.59,0,0,1,2.67-2.67,12.67,12.67,0,0,1,1.74.55"/><path class="cls-2" d="M101.19,32.25l10.6-.12a5.58,5.58,0,1,0-3.45,5.29A5.37,5.37,0,0,0,111,35"/><path class="cls-2" d="M115.67,32.25l10.6-.12a5.49,5.49,0,0,0-1.58-3.77,5.58,5.58,0,1,0-1.87,9.06A5.37,5.37,0,0,0,125.47,35"/><path class="cls-3" d="M83.16,32.25a5.42,5.42,0,1,1-5.42-5.42A5.42,5.42,0,0,1,83.16,32.25Z"/><path class="cls-4" d="M85.1,56.05a2.92,2.92,0,1,1-2.92-2.92A2.92,2.92,0,0,1,85.1,56.05Z"/><path class="cls-4" d="M121,56l5.51-.06a2.9,2.9,0,1,0-5,2.1,2.92,2.92,0,0,0,3.19.65,2.79,2.79,0,0,0,1.38-1.27"/><path class="cls-4" d="M64.66,58.94l-3.57,0a1,1,0,0,1-1-1V53.17"/><polyline class="cls-4" points="99.7 53.03 102.62 58.97 106.08 53.03"/><path class="cls-5" d="M59.28,44.86h66.93a.54.54,0,1,1,0,1.08H59.28a.54.54,0,1,1,0-1.08"/><path class="cls-6" d="M72,57.8a1.41,1.41,0,0,1-1.12-.74c-.4-.59-.46-1.24-.14-1.46s.85,0,1.24.57"/><path class="cls-7" d="M72,57.8a1.41,1.41,0,0,1-1.12-.74c-.4-.59-.46-1.24-.14-1.46s.85,0,1.24.57"/><path class="cls-6" d="M70.71,55.59a1.6,1.6,0,0,0,.74,1.16l.13.09"/><path class="cls-7" d="M70.71,55.59a1.6,1.6,0,0,0,.74,1.16l.13.09"/><path class="cls-6" d="M71.9,56.27c-.4.59-.46,1.24-.13,1.46s.91-.08,1.31-.67.46-1.24.13-1.46-.91.08-1.31.67"/><path class="cls-7" d="M71.9,56.27c-.4.59-.46,1.24-.13,1.46s.91-.08,1.31-.67.46-1.24.13-1.46S72.3,55.68,71.9,56.27Z"/><path class="cls-6" d="M73.21,55.59a1.63,1.63,0,0,1-.75,1.16,1.28,1.28,0,0,0-.7,1"/><path class="cls-7" d="M73.21,55.59a1.63,1.63,0,0,1-.75,1.16,1.28,1.28,0,0,0-.7,1"/><path class="cls-6" d="M72,57.8a1.41,1.41,0,0,1-1.12-.74c-.4-.59-.46-1.24-.14-1.46s.85,0,1.24.57"/><path class="cls-7" d="M72,57.8a1.41,1.41,0,0,1-1.12-.74c-.4-.59-.46-1.24-.14-1.46s.85,0,1.24.57"/><path class="cls-6" d="M70.71,55.59a1.6,1.6,0,0,0,.74,1.16l.13.1"/><path class="cls-7" d="M70.71,55.59a1.6,1.6,0,0,0,.74,1.16l.13.1"/><path class="cls-6" d="M71.9,56.27c-.4.59-.46,1.24-.13,1.46s.91-.08,1.31-.67.46-1.24.13-1.46-.91.08-1.31.67"/><path class="cls-7" d="M71.9,56.27c-.4.59-.46,1.24-.13,1.46s.91-.08,1.31-.67.46-1.24.13-1.46S72.3,55.68,71.9,56.27Z"/><path class="cls-6" d="M73.21,55.59a1.63,1.63,0,0,1-.75,1.16,1.28,1.28,0,0,0-.7,1"/><path class="cls-7" d="M73.21,55.59a1.63,1.63,0,0,1-.75,1.16,1.28,1.28,0,0,0-.7,1"/><path class="cls-6" d="M92.4,57.8a1.41,1.41,0,0,1-1.12-.74c-.4-.59-.46-1.24-.14-1.46s.85,0,1.24.57"/><path class="cls-7" d="M92.4,57.8a1.41,1.41,0,0,1-1.12-.74c-.4-.59-.46-1.24-.14-1.46s.85,0,1.24.57"/><path class="cls-6" d="M91.15,55.59a1.6,1.6,0,0,0,.75,1.16l.12.09"/><path class="cls-7" d="M91.15,55.59a1.6,1.6,0,0,0,.75,1.16l.12.09"/><path class="cls-6" d="M92.34,56.27c-.39.59-.46,1.24-.13,1.46s.91-.08,1.31-.67.46-1.24.13-1.46-.91.08-1.31.67"/><path class="cls-7" d="M92.34,56.27c-.39.59-.46,1.24-.13,1.46s.91-.08,1.31-.67.46-1.24.13-1.46S92.74,55.68,92.34,56.27Z"/><path class="cls-6" d="M93.65,55.59a1.6,1.6,0,0,1-.75,1.16,1.32,1.32,0,0,0-.7,1"/><path class="cls-7" d="M93.65,55.59a1.6,1.6,0,0,1-.75,1.16,1.32,1.32,0,0,0-.7,1"/><path class="cls-6" d="M92.4,57.8a1.41,1.41,0,0,1-1.12-.74c-.4-.59-.46-1.24-.14-1.46s.85,0,1.24.57"/><path class="cls-7" d="M92.4,57.8a1.41,1.41,0,0,1-1.12-.74c-.4-.59-.46-1.24-.14-1.46s.85,0,1.24.57"/><path class="cls-6" d="M91.15,55.59a1.6,1.6,0,0,0,.75,1.16l.12.1"/><path class="cls-7" d="M91.15,55.59a1.6,1.6,0,0,0,.75,1.16l.12.1"/><path class="cls-6" d="M92.34,56.27c-.39.59-.46,1.24-.13,1.46s.91-.08,1.31-.67.46-1.24.13-1.46-.91.08-1.31.67"/><path class="cls-7" d="M92.34,56.27c-.39.59-.46,1.24-.13,1.46s.91-.08,1.31-.67.46-1.24.13-1.46S92.74,55.68,92.34,56.27Z"/><path class="cls-6" d="M93.65,55.59a1.6,1.6,0,0,1-.75,1.16,1.32,1.32,0,0,0-.7,1"/><path class="cls-7" d="M93.65,55.59a1.6,1.6,0,0,1-.75,1.16,1.32,1.32,0,0,0-.7,1"/><path class="cls-6" d="M113.39,57.8a1.4,1.4,0,0,1-1.12-.74c-.4-.59-.46-1.24-.14-1.46s.84,0,1.24.57"/><path class="cls-7" d="M113.39,57.8a1.4,1.4,0,0,1-1.12-.74c-.4-.59-.46-1.24-.14-1.46s.84,0,1.24.57"/><path class="cls-6" d="M112.14,55.59a1.6,1.6,0,0,0,.74,1.16l.13.09"/><path class="cls-7" d="M112.14,55.59a1.6,1.6,0,0,0,.74,1.16l.13.09"/><path class="cls-6" d="M113.33,56.27c-.4.59-.46,1.24-.13,1.46s.91-.08,1.3-.67.47-1.24.14-1.46-.91.08-1.31.67"/><path class="cls-7" d="M113.33,56.27c-.4.59-.46,1.24-.13,1.46s.91-.08,1.3-.67.47-1.24.14-1.46S113.73,55.68,113.33,56.27Z"/><path class="cls-6" d="M114.63,55.59a1.6,1.6,0,0,1-.74,1.16,1.28,1.28,0,0,0-.7,1"/><path class="cls-7" d="M114.63,55.59a1.6,1.6,0,0,1-.74,1.16,1.28,1.28,0,0,0-.7,1"/><path class="cls-6" d="M113.39,57.8a1.4,1.4,0,0,1-1.12-.74c-.4-.59-.46-1.24-.14-1.46s.84,0,1.24.57"/><path class="cls-7" d="M113.39,57.8a1.4,1.4,0,0,1-1.12-.74c-.4-.59-.46-1.24-.14-1.46s.84,0,1.24.57"/><path class="cls-6" d="M112.14,55.59a1.6,1.6,0,0,0,.74,1.16l.13.1"/><path class="cls-7" d="M112.14,55.59a1.6,1.6,0,0,0,.74,1.16l.13.1"/><path class="cls-6" d="M113.33,56.27c-.4.59-.46,1.24-.13,1.46s.91-.08,1.3-.67.47-1.24.14-1.46-.91.08-1.31.67"/><path class="cls-7" d="M113.33,56.27c-.4.59-.46,1.24-.13,1.46s.91-.08,1.3-.67.47-1.24.14-1.46S113.73,55.68,113.33,56.27Z"/><path class="cls-6" d="M114.63,55.59a1.6,1.6,0,0,1-.74,1.16,1.28,1.28,0,0,0-.7,1"/><path class="cls-7" d="M114.63,55.59a1.6,1.6,0,0,1-.74,1.16,1.28,1.28,0,0,0-.7,1"/><path class="cls-8" d="M26.06,59c-5,.56-12-3.85-17-11.28-6.08-9-7-19-2.08-22.3,4.65-3.14,12.86.76,18.87,8.77"/><path class="cls-9" d="M26.06,59c-5,.56-12-3.85-17-11.28-6.08-9-7-19-2.08-22.3,4.65-3.14,12.86.76,18.87,8.77"/><path class="cls-8" d="M7.05,25.35A24.54,24.54,0,0,0,18.42,43.06c.66.41,1.28.83,1.86,1.25"/><path class="cls-9" d="M7.05,25.35A24.54,24.54,0,0,0,18.42,43.06c.66.41,1.28.83,1.86,1.25"/><path class="cls-8" d="M25.25,35.66c-6.08,9-7,19-2.08,22.3S37,56.71,43.09,47.72s7-19,2.08-22.3S31.32,26.67,25.25,35.66"/><path class="cls-9" d="M25.25,35.66c-6.08,9-7,19-2.08,22.3S37,56.71,43.09,47.72s7-19,2.08-22.3S31.32,26.67,25.25,35.66Z"/><path class="cls-8" d="M45.07,25.35A24.54,24.54,0,0,1,33.7,43.06c-10.58,6.6-10.64,14.83-10.64,14.83"/><path class="cls-9" d="M45.07,25.35A24.54,24.54,0,0,1,33.7,43.06c-10.58,6.6-10.64,14.83-10.64,14.83"/><path class="cls-8" d="M26.06,59c-5,.56-12-3.85-17-11.28-6.08-9-7-19-2.08-22.3,4.65-3.14,12.86.76,18.87,8.77"/><path class="cls-9" d="M26.06,59c-5,.56-12-3.85-17-11.28-6.08-9-7-19-2.08-22.3,4.65-3.14,12.86.76,18.87,8.77"/><path class="cls-8" d="M7.05,25.35A24.54,24.54,0,0,0,18.42,43.06c.66.41,1.35,1,1.93,1.39"/><path class="cls-9" d="M7.05,25.35A24.54,24.54,0,0,0,18.42,43.06c.66.41,1.35,1,1.93,1.39"/><path class="cls-8" d="M25.25,35.66c-6.08,9-7,19-2.08,22.3S37,56.71,43.09,47.72s7-19,2.08-22.3S31.32,26.67,25.25,35.66"/><path class="cls-9" d="M25.25,35.66c-6.08,9-7,19-2.08,22.3S37,56.71,43.09,47.72s7-19,2.08-22.3S31.32,26.67,25.25,35.66Z"/><path class="cls-8" d="M45.07,25.35A24.54,24.54,0,0,1,33.7,43.06c-10.58,6.6-10.64,14.83-10.64,14.83"/><path class="cls-9" d="M45.07,25.35A24.54,24.54,0,0,1,33.7,43.06c-10.58,6.6-10.64,14.83-10.64,14.83"/><path class="cls-10" d="M31.12,7.31c0,.33,0,.66,0,1a5.63,5.63,0,0,1-.25,1.22A6.93,6.93,0,0,1,30,11.24a7.8,7.8,0,0,1-1.31,1.55,10.71,10.71,0,0,1-2,1.44,21,21,0,0,0-2.25,1.5A12.31,12.31,0,0,0,23,17.08,6.69,6.69,0,0,0,21.63,19c-.09.21-.16.43-.24.67a1.45,1.45,0,0,1,0-.29,5.78,5.78,0,0,1,.21-2.15,7.09,7.09,0,0,1,1.08-2.25,9.22,9.22,0,0,1,1.54-1.7,15.68,15.68,0,0,1,2.22-1.58c.52-.31,1-.64,1.52-1A13.3,13.3,0,0,0,29.53,9.4a6.33,6.33,0,0,0,1.28-1.5,4.72,4.72,0,0,0,.24-.56s0,0,0,0h.05"/><path class="cls-10" d="M21.37,14.46c0-.24-.05-.47-.05-.7a6.66,6.66,0,0,1,.7-2.94,8.68,8.68,0,0,1,2-2.57,15.16,15.16,0,0,1,1.4-1.11c.38-.27.8-.48,1.2-.73a19.61,19.61,0,0,0,2.69-1.92,7.61,7.61,0,0,0,1.32-1.4,2.45,2.45,0,0,0,.45-.88l0,0h0c0,.18,0,.36,0,.53a6.59,6.59,0,0,1-1.35,3.79,8.12,8.12,0,0,1-1.88,1.82c-.49.35-1,.65-1.52,1a22.94,22.94,0,0,0-2.15,1.5,12.87,12.87,0,0,0-1.43,1.33A6.18,6.18,0,0,0,21.54,14c-.05.14-.09.3-.13.45Z"/><path class="cls-10" d="M23.77,21.63v-.26a5.86,5.86,0,0,1,1-3.27,6,6,0,0,1,.78-1,7.58,7.58,0,0,1,1.54-1.1,15.53,15.53,0,0,0,2.51-1.65,5.46,5.46,0,0,0,1.09-1.11.36.36,0,0,0,.07-.1l.05-.09h0a4.85,4.85,0,0,1,.08.53A3.83,3.83,0,0,1,30,16.36a7.29,7.29,0,0,1-2.12,1.71,15.79,15.79,0,0,0-2.52,1.68A6.36,6.36,0,0,0,24,21.26c-.06.09-.11.2-.17.3l0,.08h0"/></svg>