<svg id="Layer_1" data-name="Layer 1" xmlns="http://www.w3.org/2000/svg" viewBox="0 0 26.99 21.3"><defs><style>.cls-1{fill:#4f322e;stroke:#49b649;stroke-width:1.25px;}.cls-1,.cls-2{stroke-miterlimit:10;}.cls-2{fill:none;stroke:#47b549;stroke-width:1.29px;}</style></defs><title>coffee</title><path class="cls-1" d="M13.87,21.13C11,21.46,6.93,18.9,4,14.62.52,9.43,0,3.66,2.83,1.74c2.68-1.82,7.42.43,10.9,5.06" transform="translate(-0.37 -0.48)"/><path class="cls-2" d="M2.89,1.69A14.17,14.17,0,0,0,9.45,11.92c.38.24.78.56,1.12.81" transform="translate(-0.37 -0.48)"/><path class="cls-1" d="M13.4,7.65c-3.51,5.19-4.05,11-1.21,12.88s8-.72,11.51-5.91,4.05-11,1.2-12.88S16.91,2.46,13.4,7.65Z" transform="translate(-0.37 -0.48)"/><path class="cls-2" d="M24.84,1.69a14.17,14.17,0,0,1-6.56,10.23c-6.11,3.82-6.15,8.57-6.15,8.57" transform="translate(-0.37 -0.48)"/></svg>